<svg xmlns="http://www.w3.org/2000/svg" viewBox="0 0 1104.57 426.55"><defs><style>.cls-1{fill:#1b2534;}.cls-1,.cls-10,.cls-2,.cls-3,.cls-4,.cls-5,.cls-6,.cls-7,.cls-9{stroke:#000;stroke-miterlimit:10;}.cls-1,.cls-10,.cls-2,.cls-5,.cls-6,.cls-7,.cls-9{stroke-width:8px;}.cls-2{fill:#2e3a4c;}.cls-3{fill:#7a561b;}.cls-3,.cls-4{stroke-width:5px;}.cls-4{fill:#b88b2e;}.cls-5,.cls-8{fill:#ffcd4d;}.cls-6{fill:#d4a437;}.cls-7{font-size:298px;fill:#fff;font-family:CenturyGothic-Bold, Century Gothic;font-weight:700;letter-spacing:0.02em;}.cls-9{fill:#47566d;}.cls-10{fill:none;}</style></defs><g id="Vault_Door" data-name="Vault Door"><rect class="cls-1" x="716.57" y="4" width="384" height="406" rx="63.5"/><rect class="cls-2" x="758.57" y="43" width="301" height="329" rx="57.1"/><rect class="cls-3" x="811.42" y="198.5" width="197.15" height="16"/><rect class="cls-3" x="902.07" y="102.85" width="16" height="209.15"/><rect class="cls-3" x="1020.2" y="366.77" width="197.15" height="16" transform="translate(-146.76 732.86) rotate(-45)"/><rect class="cls-3" x="1111.48" y="270.8" width="16" height="209.15" transform="translate(-146.98 733.53) rotate(-45)"/><circle class="cls-4" cx="910.07" cy="206.5" r="18"/><path class="cls-5" d="M1119.5,259.5a115,115,0,1,0,115,115A115,115,0,0,0,1119.5,259.5Zm0,195a80,80,0,1,1,80-80A80,80,0,0,1,1119.5,454.5Z" transform="translate(-209.43 -168)"/><rect class="cls-6" x="1041.57" y="90" width="33" height="70" rx="10.32"/><rect class="cls-6" x="1041.57" y="268" width="33" height="70" rx="10.79"/></g><g id="PHSC"><text class="cls-7" transform="translate(4 314.04)">PHS<tspan class="cls-8" x="542.44" y="0">C</tspan></text></g><g id="Mouse"><path class="cls-9" d="M440.75,533.25h0A16.23,16.23,0,0,0,436,544.72v29.52a16.32,16.32,0,0,0,4.78,11.54h0a16.29,16.29,0,0,0,11.53,4.77h71.94a31,31,0,0,0,31-31h0a31,31,0,0,0-31-31h-72A16.23,16.23,0,0,0,440.75,533.25Z" transform="translate(-209.43 -168)"/><polyline class="cls-10" points="227.56 391.26 281.81 391.26 281.81 422.55 281.81 360.5"/><rect class="cls-5" x="239.57" y="383" width="24.9" height="16.52" rx="8.26"/><path class="cls-10" d="M253,482v45.22a32,32,0,0,0,9.38,22.65h0A32,32,0,0,0,285,559.24H435.53" transform="translate(-209.43 -168)"/></g></svg>