<svg xmlns="http://www.w3.org/2000/svg" viewBox="0 0 754 754"><defs><style>.cls-1{fill:#111828;stroke:#111828;}.cls-1,.cls-2,.cls-3,.cls-4,.cls-5,.cls-6,.cls-7,.cls-8{stroke-miterlimit:10;}.cls-1,.cls-8{stroke-width:4px;}.cls-2{fill:#1c2534;}.cls-2,.cls-3,.cls-4,.cls-5,.cls-6,.cls-7,.cls-8{stroke:#010101;}.cls-2,.cls-3,.cls-6,.cls-7{stroke-width:8px;}.cls-3{fill:#2f3b4d;}.cls-4{fill:#7b5723;}.cls-4,.cls-5{stroke-width:5px;}.cls-5{fill:#b78b2d;}.cls-6,.cls-9{fill:#ffcd4e;}.cls-7{fill:#d4a537;}.cls-8{font-size:132.81px;fill:#fff;font-family:CenturyGothic-Bold, Century Gothic;font-weight:700;letter-spacing:0.02em;}.cls-9{letter-spacing:0.02em;}</style></defs><g id="Layer_1" data-name="Layer 1"><rect class="cls-1" x="2" y="2" width="750" height="750"/></g><g id="Layer_2" data-name="Layer 2"><rect class="cls-2" x="187.54" y="242.49" width="384" height="406" rx="63.5"/><rect class="cls-3" x="229.54" y="281.49" width="301" height="329" rx="57.1"/><rect class="cls-4" x="282.39" y="436.99" width="197.15" height="16"/><rect class="cls-4" x="373.04" y="341.34" width="16" height="209.15"/><rect class="cls-4" x="279.73" y="435.26" width="197.15" height="16" transform="translate(-200.63 399.33) rotate(-45)"/><rect class="cls-4" x="371.01" y="339.29" width="16" height="209.15" transform="translate(-200.85 400.01) rotate(-45)"/><circle class="cls-5" cx="381.04" cy="444.99" r="18"/><path class="cls-6" d="M379,328A115,115,0,1,0,494,443,115,115,0,0,0,379,328Zm0,195a80,80,0,1,1,80-80A80,80,0,0,1,379,523Z" transform="translate(2 2)"/><rect class="cls-7" x="512.54" y="328.49" width="33" height="70" rx="10.32"/><rect class="cls-7" x="512.54" y="506.49" width="33" height="70" rx="10.79"/></g><g id="Layer_3" data-name="Layer 3"><text class="cls-8" transform="translate(151.54 216.97)">PHS<tspan class="cls-9" x="241.74" y="0">CO</tspan></text></g></svg>